Coordinates
version=1
nRows=7
nColumns=40
inDegrees=yes

Units are S.I. units (second, meters, Newtons, ...)
If the header above contains a line with 'inDegrees', this indicates whether rotational values are in degrees (yes) or radians (no).

endheader
time	pelvis_tilt	pelvis_list	pelvis_rotation	pelvis_tx	pelvis_ty	pelvis_tz	hip_flexion_r	hip_adduction_r	hip_rotation_r	knee_angle_r	knee_angle_r_beta	ankle_angle_r	subtalar_angle_r	mtp_angle_r	hip_flexion_l	hip_adduction_l	hip_rotation_l	knee_angle_l	knee_angle_l_beta	ankle_angle_l	subtalar_angle_l	mtp_angle_l	lumbar_extension	lumbar_bending	lumbar_rotation	arm_flex_r	arm_add_r	arm_rot_r	elbow_flex_r	pro_sup_r	wrist_flex_r	wrist_dev_r	arm_flex_l	arm_add_l	arm_rot_l	elbow_flex_l	pro_sup_l	wrist_flex_l	wrist_dev_l
      9.60000000	     10.13340062	     -9.09321357	      0.85376662	     -0.25252867	      1.08051673	     -1.03257378	     51.11232586	     -3.35455894	     -9.29145072	     27.14716702	      0.47380745	     -2.54147305	      0.00000000	      0.00000000	     -2.91984781	     -4.07190155	     -7.82519822	     19.14409508	      0.33412749	      8.21764463	      0.00000000	      0.00000000	    -15.32824350	      7.71731990	      0.64387361	     89.47144408	     -8.72284971	     48.71187216	     24.99708412	     85.97431284	      0.00000000	      0.00000000	     89.46480041	    -14.64020683	     51.81021909	     26.53650288	     85.51012962	      0.00000000	      0.00000000
      9.60500000	     10.14813176	     -9.09311338	      0.88777492	     -0.25255232	      1.08050055	     -1.03283783	     51.15085895	     -3.36186150	     -9.23496080	     27.23417676	      0.47532605	     -2.55895163	      0.00000000	      0.00000000	     -2.93001951	     -4.05934667	     -7.80963881	     19.13738429	      0.33401037	      8.21012812	      0.00000000	      0.00000000	    -15.34430593	      7.73171746	      0.62814985	     89.46377410	     -8.70600183	     48.67820044	     24.96384586	     85.95037378	      0.00000000	      0.00000000	     89.46870721	    -14.63932865	     51.78898280	     26.54144258	     85.56579927	      0.00000000	      0.00000000
      9.61000000	     10.20685583	     -9.03423438	      0.93403885	     -0.25251117	      1.08057007	     -1.03320008	     51.16009001	     -3.42995056	     -9.13767462	     27.39573033	      0.47814570	     -2.38906427	      0.00000000	      0.00000000	     -3.04476439	     -3.96218704	     -7.69172749	     19.00641907	      0.33172459	      8.03726370	      0.00000000	      0.00000000	    -15.38758672	      7.68707395	      0.58672097	     89.47794874	     -8.66529044	     49.09007537	     24.86353180	     84.35051531	      0.00000000	      0.00000000	     89.47178309	    -14.56415428	     52.03376197	     26.34534864	     83.93244119	      0.00000000	      0.00000000
      9.61500000	     10.25101151	     -9.04678775	      0.95131121	     -0.25248971	      1.08056562	     -1.03342884	     51.15335892	     -3.40508582	     -9.08582993	     27.46457599	      0.47934728	     -2.42503852	      0.00000000	      0.00000000	     -3.06837783	     -3.97265537	     -7.71943079	     19.07215693	      0.33287193	      8.11259225	      0.00000000	      0.00000000	    -15.42574516	      7.70773847	      0.58093463	     89.47439474	     -8.73260817	     49.27740023	     25.04714277	     84.38528442	      0.00000000	      0.00000000	     89.48881421	    -14.65443321	     52.36118888	     26.48177362	     84.00708786	      0.00000000	      0.00000000
      9.62000000	     10.16541869	     -9.18645933	      1.06222291	     -0.25275440	      1.08032242	     -1.03351442	     51.23237574	     -3.34757842	     -9.13922316	     27.43558254	      0.47884125	     -2.58637977	      0.00000000	      0.00000000	     -2.84580148	     -4.15960150	     -7.61901601	     19.25499212	      0.33606301	      8.29602440	      0.00000000	      0.00000000	    -15.35706882	      7.87884435	      0.50276331	     89.45955753	     -8.68219314	     48.70108138	     24.99847264	     85.94605618	      0.00000000	      0.00000000	     89.48424918	    -14.65774683	     51.74622736	     26.51738855	     85.52412835	      0.00000000	      0.00000000
      9.62500000	     10.23461608	     -9.18035421	      1.09262806	     -0.25269727	      1.08039742	     -1.03380097	     51.20348708	     -3.34594935	     -9.05298728	     27.56967281	      0.48118156	     -2.45125451	      0.00000000	      0.00000000	     -2.96247440	     -4.14675451	     -7.70587380	     19.18447522	      0.33483226	      8.21680886	      0.00000000	      0.00000000	    -15.42268504	      7.88039347	      0.48148734	     89.48401659	     -8.64197174	     49.02340099	     24.95099931	     84.19778502	      0.00000000	      0.00000000	     89.48706309	    -14.61698999	     52.00443936	     26.40660227	     83.84449573	      0.00000000	      0.00000000
      9.63000000	     10.28039295	     -9.09432029	      1.06650571	     -0.25258254	      1.08051134	     -1.03420369	     51.17687215	     -3.38944887	     -8.93457844	     27.61939272	      0.48204934	     -2.46717941	      0.00000000	      0.00000000	     -3.04764794	     -4.01382821	     -7.70812538	     19.14347929	      0.33411674	      8.22211337	      0.00000000	      0.00000000	    -15.45985600	      7.80991554	      0.51267598	     89.46259234	     -8.68089983	     48.75958665	     24.97839604	     85.87620652	      0.00000000	      0.00000000	     89.47624829	    -14.62477288	     51.77886525	     26.45917774	     85.53262848	      0.00000000	      0.00000000
